<svg width="124" height="96" viewBox="0 0 124 96" fill="none" xmlns="http://www.w3.org/2000/svg">
<g clip-path="url(#clip0_10445_2833)">
<path d="M55.248 131.5C80.1009 131.5 100.248 111.353 100.248 86.5C100.248 61.6472 80.1009 41.5 55.248 41.5C30.3952 41.5 10.248 61.6472 10.248 86.5C10.248 111.353 30.3952 131.5 55.248 131.5Z" fill="#63E2FD"/>
<path d="M96.873 83.5C96.873 58.8543 76.8938 38.875 52.248 38.875C27.6023 38.875 7.62305 58.8543 7.62305 83.5C7.62305 108.146 27.6023 128.125 52.248 128.125C76.8938 128.125 96.873 108.146 96.873 83.5ZM97.623 83.5C97.623 108.56 77.308 128.875 52.248 128.875C27.1881 128.875 6.87305 108.56 6.87305 83.5C6.87305 58.4401 27.1881 38.125 52.248 38.125C77.308 38.125 97.623 58.4401 97.623 83.5Z" fill="#062D41"/>
<path d="M39.4102 30.3777L39.6553 30.3845L43.4404 39.7497L43.002 39.8415C37.5062 41.0017 32.3892 43.174 27.8447 46.1491L27.4629 46.3991L23.6152 36.8679L23.7871 36.6921C25.7869 34.6542 28.1845 33.0121 30.9336 31.8972C33.5117 30.8516 36.1968 30.3639 38.874 30.3698L39.4102 30.3777ZM39.1445 31.1237C36.4699 31.0833 33.7871 31.5497 31.2158 32.5925C28.6434 33.6358 26.3901 35.1579 24.4951 37.0446L27.8174 45.2761C32.2207 42.4557 37.1403 40.3722 42.4111 39.2048L39.1445 31.1237Z" fill="#062D41"/>
<path d="M51.3429 24.6788C52.4117 24.6227 52.949 25.948 52.1427 26.6544L52.1407 26.6564L41.5665 35.7931L41.17 36.1349L39.1446 31.1241C36.47 31.0836 33.7871 31.5502 31.2159 32.5929C28.6435 33.6362 26.3902 35.1584 24.4952 37.045L26.5186 42.0548L12.046 42.8644C10.9759 42.9205 10.44 41.5933 11.2462 40.8878L11.2481 40.8858L28.2423 26.2013L28.2491 26.1954C28.4302 26.0464 28.6636 25.9416 28.92 25.9298L51.3429 24.6788ZM28.9581 26.6788L28.9552 26.6798C28.8842 26.683 28.8045 26.7125 28.7325 26.7696L11.7384 41.4542C11.4678 41.6939 11.6516 42.1333 12.005 42.1153L25.4308 41.3644L23.6153 36.8683L23.7872 36.6925C25.787 34.6545 28.1856 33.0125 30.9347 31.8976C33.6844 30.7825 36.5555 30.3018 39.4093 30.378L39.6554 30.3849L41.4718 34.8819L51.6505 26.088C51.9199 25.8488 51.7367 25.4082 51.3819 25.4269L28.9581 26.6788Z" fill="#062D41"/>
<path d="M35.75 69.5C37.2688 69.5 38.5 68.2688 38.5 66.75C38.5 65.2312 37.2688 64 35.75 64C34.2312 64 33 65.2312 33 66.75C33 68.2688 34.2312 69.5 35.75 69.5Z" fill="#062D41"/>
<path d="M66.75 69.5C68.2688 69.5 69.5 68.2688 69.5 66.75C69.5 65.2312 68.2688 64 66.75 64C65.2312 64 64 65.2312 64 66.75C64 68.2688 65.2312 69.5 66.75 69.5Z" fill="#062D41"/>
<path d="M45.6867 68.5605C46.226 68.4412 46.7596 68.783 46.8789 69.3223C46.8812 69.331 46.8859 69.3458 46.8918 69.366C46.9059 69.4137 46.9311 69.4913 46.9697 69.591C47.0473 69.7915 47.1786 70.0775 47.3872 70.3944C47.8004 71.0221 48.5193 71.7779 49.7597 72.2426C51.0437 72.7236 52.4169 72.7718 53.5034 72.6852C54.0407 72.6424 54.4931 72.5673 54.8077 72.5042C54.9645 72.4727 55.0863 72.4446 55.1662 72.4248C55.2058 72.4149 55.2351 72.4078 55.2531 72.403C55.2621 72.4006 55.269 72.3988 55.2722 72.3979L55.2721 72.3969C55.8027 72.2436 56.3571 72.55 56.5104 73.0806C56.6636 73.6111 56.3581 74.1654 55.8277 74.3188L55.5494 73.3579L55.8267 74.3189L55.8247 74.3191C55.8237 74.3194 55.8224 74.3201 55.821 74.3205C55.818 74.3214 55.8141 74.3225 55.8096 74.3238C55.8005 74.3263 55.7884 74.3298 55.7734 74.3338C55.7431 74.342 55.7006 74.3528 55.6473 74.366C55.5408 74.3924 55.3894 74.4275 55.2006 74.4654C54.8238 74.541 54.2928 74.6288 53.6632 74.679C52.4153 74.7785 50.7179 74.7367 49.0582 74.115C47.3545 73.4766 46.3201 72.4114 45.7164 71.4942C45.4169 71.0391 45.2239 70.6219 45.1042 70.3121C45.0442 70.1571 45.0022 70.0273 44.9741 69.9319C44.96 69.8843 44.9487 69.8447 44.941 69.8148C44.9371 69.7998 44.9341 69.7867 44.9317 69.7765C44.9305 69.7715 44.93 69.7669 44.9291 69.7631C44.9287 69.7611 44.9279 69.759 44.9275 69.7574L44.9272 69.7544C44.9317 69.753 44.9961 69.738 45.9029 69.5374L44.9261 69.7536C44.8068 69.2144 45.1475 68.6799 45.6867 68.5605Z" fill="#062D41"/>
<path d="M103.446 33.3008C103.794 33.2345 104.123 33.3123 104.415 33.4755C104.975 33.7887 105.442 34.4385 105.821 35.1513C106.434 36.3071 106.902 37.8057 107.167 38.937C107.169 38.9352 107.172 38.9335 107.174 38.9317C107.539 38.6156 108.107 38.3218 108.874 38.4295L108.915 38.4326C108.944 38.4352 108.982 38.4402 109.028 38.4478C109.118 38.4629 109.243 38.491 109.377 38.5454C109.508 38.5988 109.655 38.6804 109.789 38.8014C109.829 38.7607 109.873 38.7195 109.92 38.6784C110.263 38.3809 110.801 38.1082 111.583 38.1395C112.413 38.1728 112.949 38.6421 113.263 39.0713C113.42 39.2853 113.527 39.4954 113.594 39.6515C113.628 39.73 113.653 39.7965 113.67 39.8443C113.678 39.868 113.684 39.8876 113.688 39.9018C113.689 39.9056 113.691 39.9093 113.692 39.9124C113.693 39.9149 113.694 39.9177 113.695 39.9209C113.701 39.9355 113.708 39.9572 113.718 39.985C113.738 40.0411 113.767 40.1242 113.804 40.2319C113.877 40.4475 113.98 40.7643 114.102 41.1716C114.344 41.986 114.66 43.164 114.955 44.6244C115.543 47.5445 116.047 51.6005 115.708 56.1408C115.028 65.2356 110.959 76.2637 97.4561 83.9673L97.2704 83.6408L97.0847 83.3153C110.332 75.7579 114.296 64.9801 114.961 56.0848C115.294 51.6301 114.799 47.6445 114.22 44.7721C113.93 43.3368 113.62 42.1813 113.383 41.3858C113.264 40.9881 113.164 40.6801 113.094 40.4729C113.059 40.3693 113.031 40.2906 113.012 40.2385C113.003 40.2124 112.996 40.1929 112.991 40.1802C112.989 40.1739 112.987 40.1688 112.986 40.1658L112.985 40.1629L112.974 40.1314L112.974 40.1304C112.974 40.1292 112.973 40.1275 112.973 40.1256C112.97 40.1184 112.966 40.1063 112.961 40.0902C112.949 40.0579 112.931 40.0092 112.905 39.9499C112.854 39.8304 112.773 39.6717 112.658 39.5139C112.427 39.1988 112.08 38.9103 111.553 38.8891C110.979 38.866 110.623 39.0615 110.411 39.2453C110.302 39.3399 110.227 39.4353 110.18 39.505C110.157 39.5397 110.141 39.5673 110.132 39.5845C110.128 39.5916 110.124 39.5966 110.123 39.5998C110.124 39.6002 110.124 39.6007 110.124 39.6007L110.123 39.6017L110.123 39.6027L110.122 39.6037L110.097 39.6504C110.026 39.7625 109.9 39.8302 109.765 39.8247C109.61 39.8183 109.475 39.718 109.425 39.5718C109.365 39.3944 109.236 39.2974 109.094 39.2401C109.023 39.2113 108.955 39.1953 108.905 39.1869C108.88 39.1827 108.86 39.1808 108.849 39.1798C108.845 39.1794 108.842 39.1785 108.84 39.1784C108.824 39.1779 108.809 39.1769 108.794 39.1746C108.28 39.095 107.913 39.283 107.664 39.4987C107.537 39.6085 107.442 39.7251 107.379 39.8138C107.348 39.8574 107.325 39.8932 107.311 39.917C107.304 39.9289 107.299 39.9385 107.296 39.9434C107.295 39.9454 107.295 39.9469 107.295 39.9475C107.222 40.0907 107.065 40.1715 106.906 40.148C106.746 40.1242 106.619 39.9999 106.591 39.8406C106.403 38.7618 105.878 36.859 105.158 35.5027C104.793 34.8137 104.41 34.3323 104.049 34.1305C103.881 34.0364 103.73 34.0109 103.586 34.0384C103.437 34.0669 103.25 34.161 103.029 34.3888L103.028 34.3899C103.037 34.3803 103.023 34.3913 103.001 34.4533C102.98 34.5112 102.96 34.5933 102.944 34.7026C102.91 34.9219 102.893 35.2133 102.894 35.5602C102.895 36.2518 102.962 37.117 103.051 37.9702C103.14 38.8211 103.251 39.6511 103.339 40.2688C103.384 40.5774 103.423 40.8332 103.45 41.0112C103.464 41.0998 103.475 41.1693 103.482 41.2165C103.486 41.2402 103.49 41.2587 103.492 41.2707C103.493 41.2766 103.493 41.2813 103.494 41.2843C103.494 41.2855 103.494 41.2865 103.494 41.2872L103.495 41.2881L103.497 41.3007L103.497 41.3115C103.498 41.318 103.5 41.3274 103.501 41.3396C103.504 41.3649 103.51 41.4026 103.515 41.4512C103.527 41.5484 103.543 41.691 103.562 41.8739C103.601 42.2399 103.651 42.7681 103.699 43.418C103.795 44.7175 103.882 46.5075 103.841 48.4683C103.801 50.4278 103.634 52.5666 103.221 54.5606C102.81 56.5497 102.147 58.4236 101.097 59.8309C99.0259 62.6049 96.7967 63.4565 95.0557 63.5871C94.1929 63.6518 93.462 63.5385 92.9459 63.4085C92.6877 63.3434 92.4816 63.2742 92.3386 63.22C92.2672 63.1929 92.2109 63.1696 92.1717 63.1526C92.1522 63.1441 92.1365 63.1372 92.1254 63.1321C92.12 63.1296 92.1156 63.1277 92.1123 63.1261C92.1106 63.1253 92.1093 63.124 92.1082 63.1234L92.1072 63.1225L92.1062 63.1226C92.1059 63.1225 92.1056 63.122 92.2701 62.785C92.4191 62.4798 92.433 62.4512 92.4341 62.4485C92.4351 62.4489 92.4373 62.4497 92.4402 62.451C92.4463 62.4539 92.4571 62.4584 92.4714 62.4646C92.5002 62.4772 92.5455 62.496 92.6051 62.5186C92.7243 62.5637 92.9024 62.6249 93.1295 62.6821C93.5845 62.7967 94.2327 62.8966 94.9991 62.8392C96.5172 62.7254 98.5508 61.9883 100.496 59.3827C101.453 58.1002 102.086 56.3471 102.487 54.4087C102.888 52.475 103.052 50.3849 103.092 48.4526C103.131 46.5219 103.046 44.7566 102.951 43.4736C102.904 42.8324 102.854 42.312 102.816 41.9528C102.797 41.7734 102.782 41.634 102.771 41.5399C102.765 41.4928 102.76 41.4569 102.757 41.4331C102.755 41.4212 102.755 41.4118 102.754 41.4059C102.754 41.4033 102.753 41.4014 102.753 41.4001L102.752 41.3972C102.752 41.3953 102.751 41.3928 102.751 41.3904C102.749 41.3779 102.746 41.3591 102.743 41.3352C102.735 41.2869 102.723 41.2159 102.709 41.126C102.681 40.9457 102.642 40.6876 102.597 40.3759C102.507 39.7524 102.395 38.912 102.304 38.0482C102.214 37.1865 102.145 36.2911 102.144 35.5611C102.144 35.1974 102.16 34.8627 102.202 34.5885C102.223 34.4512 102.252 34.3194 102.293 34.2028C102.333 34.0903 102.393 33.9659 102.491 33.866C102.785 33.5631 103.103 33.3661 103.446 33.3008Z" fill="#062D41"/>
<path d="M105.763 42.1164C106.294 41.5631 107.124 40.9645 108.18 41.0704C108.446 41.0969 108.672 41.2103 108.843 41.3961C109.007 41.5751 109.103 41.8022 109.156 42.0363C109.26 42.4993 109.215 43.0775 109.082 43.6578C108.817 44.8178 108.16 46.1661 107.298 46.9419L106.797 46.3844C107.51 45.7423 108.109 44.5512 108.351 43.4911C108.472 42.9613 108.493 42.5087 108.424 42.2014C108.39 42.0505 108.339 41.9575 108.29 41.9038C108.247 41.857 108.193 41.8247 108.106 41.816C107.392 41.7444 106.775 42.1453 106.304 42.6361C106.073 42.8763 105.891 43.1238 105.767 43.312C105.706 43.4056 105.659 43.4838 105.628 43.5373C105.613 43.5638 105.601 43.584 105.594 43.5973C105.591 43.6037 105.588 43.6086 105.586 43.6115C105.586 43.6128 105.585 43.6141 105.585 43.6146C105.582 43.6132 105.555 43.5988 105.251 43.4425C104.948 43.2864 104.921 43.2728 104.918 43.2714L104.92 43.2684C104.921 43.2667 104.922 43.264 104.923 43.2613C104.926 43.256 104.93 43.2489 104.935 43.24C104.945 43.2216 104.959 43.1951 104.978 43.1628C105.015 43.098 105.07 43.0065 105.141 42.8987C105.282 42.6842 105.492 42.3983 105.763 42.1164Z" fill="#062D41"/>
<path d="M107.646 41.2509L106.911 41.4025L106.593 39.8525L107.327 39.701L107.646 41.2509Z" fill="#062D41"/>
<path d="M110.12 39.2986L110.121 39.3005C110.122 39.3012 110.122 39.3022 110.123 39.3034C110.124 39.306 110.126 39.31 110.128 39.3147C110.132 39.3241 110.138 39.3377 110.145 39.3547C110.161 39.3889 110.182 39.4381 110.208 39.5004C110.259 39.6249 110.329 39.8025 110.402 40.0162C110.547 40.4407 110.712 41.0212 110.774 41.6233C110.835 42.2187 110.801 42.8829 110.502 43.4379C110.188 44.018 109.616 44.42 108.736 44.5305L108.642 43.787C109.317 43.7023 109.659 43.4193 109.841 43.0816C110.037 42.7186 110.082 42.2314 110.027 41.7004C109.973 41.1763 109.828 40.655 109.693 40.2591C109.625 40.0627 109.562 39.8999 109.515 39.7872C109.492 39.7309 109.472 39.6868 109.46 39.6577C109.453 39.6433 109.448 39.6324 109.445 39.6254C109.443 39.6221 109.442 39.6193 109.441 39.6178L109.441 39.6169C109.443 39.6163 109.463 39.6062 109.78 39.4578C110.099 39.3089 110.119 39.2991 110.12 39.2986Z" fill="#062D41"/>
<path d="M113.365 39.2704C113.365 39.2711 113.366 39.2722 113.366 39.2733C113.367 39.2755 113.367 39.2789 113.369 39.2829C113.371 39.2908 113.374 39.3022 113.379 39.3165C113.387 39.3452 113.4 39.3864 113.414 39.4385C113.443 39.543 113.481 39.6918 113.52 39.871C113.599 40.2276 113.682 40.7153 113.698 41.2216C113.715 41.7217 113.667 42.2764 113.452 42.7467C113.229 43.2364 112.827 43.6268 112.184 43.7541C111.615 43.869 111.151 43.6336 110.813 43.3003C110.483 42.9754 110.245 42.5353 110.081 42.1462L110.427 42.0014L110.773 41.8556C110.92 42.2051 111.112 42.5411 111.34 42.7659C111.56 42.9825 111.783 43.0703 112.036 43.019L112.037 43.019C112.415 42.9444 112.634 42.7344 112.771 42.4359C112.916 42.1176 112.964 41.6963 112.949 41.2459C112.935 40.8017 112.86 40.3633 112.787 40.0322C112.751 39.8677 112.717 39.7312 112.691 39.6373C112.678 39.5907 112.667 39.5548 112.66 39.5307C112.656 39.5188 112.654 39.5095 112.652 39.5038C112.651 39.5009 112.65 39.4983 112.65 39.4971L112.649 39.4961L113.365 39.2695L113.365 39.2704Z" fill="#062D41"/>
<path fill-rule="evenodd" clip-rule="evenodd" d="M100.045 21.4876C101.64 21.4878 102.932 22.7807 102.932 24.3753C102.932 25.9697 101.639 27.2618 100.045 27.262C98.4504 27.262 97.1575 25.9698 97.1573 24.3753C97.1573 22.7805 98.4503 21.4876 100.045 21.4876ZM110.005 21.0374C111.223 21.0375 112.21 22.0247 112.21 23.2424C112.21 24.4601 111.223 25.4474 110.005 25.4475C108.787 25.4475 107.8 24.4602 107.8 23.2424C107.8 22.0247 108.787 21.0374 110.005 21.0374ZM112.239 10.0647C112.719 8.66227 114.13 7.80003 115.6 8.01002C116.125 8.08504 116.627 8.29528 117.047 8.62526C118.217 9.53277 118.577 11.1451 117.909 12.4651L114.595 18.9827C113.98 20.1826 112.539 20.7079 111.302 20.1829C110.057 19.6579 109.434 18.2547 109.869 16.9798L112.239 10.0647ZM100.045 20.0178H100.037C100.038 20.0178 100.04 20.0169 100.041 20.0169C100.042 20.0169 100.044 20.0178 100.045 20.0178ZM99.0099 3.13502C99.6849 2.95503 100.397 2.95503 101.072 3.13502C102.947 3.63005 104.207 5.39243 104.072 7.32741L103.398 16.8821C103.27 18.6433 101.809 20.0149 100.041 20.0169C98.2728 20.015 96.8046 18.6434 96.6847 16.8821L96.0099 7.32741C95.8749 5.39241 97.1349 3.63002 99.0099 3.13502Z" fill="#8434FF"/>
</g>
<defs>
<clipPath id="clip0_10445_2833">
<rect width="124" height="96" fill="white"/>
</clipPath>
</defs>
</svg>
